# This file uses centimeters as units for non-parametric coordinates.

mtllib Sonny_Particle.mtl
g default
v -0.053983 0.122412 0.151674
v 0.053983 0.122412 0.151674
v -0.120498 0.372412 0.182528
v 0.120498 0.372412 0.182528
v -0.103707 0.622412 0.134685
v 0.103707 0.622412 0.134685
v -0.070108 0.872412 0.081156
v 0.070108 0.872412 0.081156
v -0.013554 1.122412 0.015134
v 0.013554 1.122412 0.015134
v -0.018072 1.122412 0.006726
v 0.018072 1.122412 0.006726
v -0.018072 1.122412 -0.006726
v 0.018072 1.122412 -0.006726
v -0.013554 1.122412 -0.015134
v 0.013554 1.122412 -0.015134
v -0.070108 0.872412 -0.081156
v 0.070108 0.872412 -0.081156
v -0.103707 0.622412 -0.134685
v 0.103707 0.622412 -0.134685
v -0.120498 0.372412 -0.182528
v 0.120498 0.372412 -0.182528
v -0.053983 0.122412 -0.151674
v 0.053983 0.122412 -0.151674
v -0.071976 0.122412 -0.067409
v 0.071976 0.122412 -0.067409
v -0.071976 0.122412 0.067409
v 0.071976 0.122412 0.067409
v 0.160662 0.372412 -0.081122
v 0.160662 0.372412 0.081122
v 0.138273 0.622412 -0.059859
v 0.138273 0.622412 0.059859
v 0.093476 0.872412 -0.036069
v 0.093476 0.872412 0.036069
v -0.160662 0.372412 -0.081122
v -0.160662 0.372412 0.081122
v -0.138273 0.622412 -0.059859
v -0.138273 0.622412 0.059859
v -0.093476 0.872412 -0.036069
v -0.093476 0.872412 0.036069
v 0.000000 1.122412 0.020178
v 0.000000 1.122412 0.006726
v 0.000000 1.122412 -0.006726
v 0.000000 1.122412 -0.020178
v 0.000000 0.872412 -0.108207
v 0.000000 0.622412 -0.179577
v 0.000000 0.372412 -0.243366
v 0.000000 0.122412 -0.202228
v 0.000000 0.122412 0.202228
v 0.000000 0.372412 0.243366
v 0.000000 0.622412 0.179577
v 0.000000 0.872412 0.108207
v -0.023137 0.000094 -0.065008
v 0.000000 0.000094 -0.086676
v 0.000000 0.000094 -0.028892
v -0.030849 0.000094 -0.028892
v 0.000000 0.000094 0.028892
v -0.030849 0.000094 0.028892
v 0.000000 0.000094 0.086676
v -0.023137 0.000094 0.065008
v 0.023137 0.000094 -0.065008
v 0.030849 0.000094 -0.028892
v 0.030849 0.000094 0.028892
v 0.023137 0.000094 0.065008
vt 0.535975 0.082910
vt 0.591719 0.082910
vt 0.612130 0.248293
vt 0.545047 0.248293
vt 0.510495 0.001992
vt 0.534387 0.001992
vt 0.625162 0.082910
vt 0.652377 0.248293
vt 0.580480 0.413677
vt 0.530980 0.413677
vt 0.446788 0.082910
vt 0.437717 0.248293
vt 0.472269 0.001992
vt 0.548721 0.001992
vt 0.545069 0.579060
vt 0.515242 0.579060
vt 0.451783 0.413677
vt 0.391044 0.082910
vt 0.370633 0.248293
vt 0.448377 0.001992
vt 0.501393 0.744443
vt 0.495831 0.744443
vt 0.467521 0.579060
vt 0.402283 0.413677
vt 0.330387 0.248293
vt 0.357601 0.082910
vt 0.434043 0.001992
vt 0.486932 0.744443
vt 0.437694 0.579060
vt 0.481370 0.744443
vt 0.062512 0.082910
vt 0.118256 0.082910
vt 0.109184 0.248293
vt 0.042101 0.248293
vt 0.119844 0.001992
vt 0.143736 0.001992
vt 0.207443 0.082910
vt 0.216514 0.248293
vt 0.123250 0.413677
vt 0.073750 0.413677
vt 0.001854 0.248293
vt 0.029068 0.082910
vt 0.105510 0.001992
vt 0.181962 0.001992
vt 0.263186 0.082910
vt 0.283597 0.248293
vt 0.202448 0.413677
vt 0.138988 0.579060
vt 0.109162 0.579060
vt 0.205854 0.001992
vt 0.296630 0.082910
vt 0.323844 0.248293
vt 0.251948 0.413677
vt 0.186710 0.579060
vt 0.158400 0.744443
vt 0.152838 0.744443
vt 0.220188 0.001992
vt 0.216537 0.579060
vt 0.167299 0.744443
vt 0.172861 0.744443
vt 0.696364 0.505195
vt 0.705331 0.501858
vt 0.705331 0.510757
vt 0.693376 0.510757
vt 0.714298 0.505195
vt 0.717286 0.510757
vt 0.705331 0.519655
vt 0.693376 0.519655
vt 0.717286 0.519655
vt 0.705331 0.528554
vt 0.696364 0.525217
vt 0.714298 0.525217
vt 0.728099 0.516192
vt 0.743405 0.501858
vt 0.743405 0.540084
vt 0.722997 0.540084
vt 0.758711 0.516192
vt 0.763813 0.540084
vt 0.743405 0.578310
vt 0.722997 0.578310
vt 0.763813 0.578310
vt 0.743405 0.616536
vt 0.728099 0.602202
vt 0.758711 0.602202
vt 0.658738 0.001992
vt 0.738451 0.001992
vt 0.738451 0.167375
vt 0.669846 0.167375
vt 0.818165 0.001992
vt 0.807057 0.167375
vt 0.738451 0.332759
vt 0.692073 0.332759
vt 0.784830 0.332759
vt 0.738451 0.498142
vt 0.729485 0.498142
vt 0.747418 0.498142
vt 0.840270 0.501858
vt 0.849237 0.501858
vt 0.849237 0.667241
vt 0.802858 0.667241
vt 0.858204 0.501858
vt 0.895616 0.667241
vt 0.849237 0.832625
vt 0.780632 0.832625
vt 0.917843 0.832625
vt 0.849237 0.998008
vt 0.769524 0.998008
vt 0.928951 0.998008
vn -0.528366 -0.189452 0.827610
vn -0.528366 -0.189452 0.827610
vn -0.528366 -0.189452 0.827610
vn -0.528366 -0.189452 0.827610
vn -0.416893 0.211374 0.884037
vn -0.416893 0.211374 0.884037
vn -0.416893 0.211374 0.884037
vn -0.416893 0.211374 0.884037
vn -0.370444 0.248464 0.895007
vn -0.370444 0.248464 0.895007
vn -0.370444 0.248464 0.895007
vn -0.370444 0.248464 0.895007
vn -0.340311 0.311812 0.887109
vn -0.340311 0.311812 0.887109
vn -0.340311 0.311812 0.887109
vn -0.340311 0.311812 0.887109
vn 0.000000 1.000000 0.000000
vn 0.000000 1.000000 0.000000
vn 0.000000 1.000000 0.000000
vn 0.000000 1.000000 0.000000
vn 0.000000 1.000000 0.000000
vn 0.000000 1.000000 0.000000
vn 0.000000 1.000000 0.000000
vn 0.000000 1.000000 0.000000
vn 0.000000 1.000000 0.000000
vn 0.000000 1.000000 0.000000
vn 0.000000 1.000000 0.000000
vn 0.000000 1.000000 0.000000
vn -0.340311 0.311812 -0.887109
vn -0.340311 0.311812 -0.887109
vn -0.340311 0.311812 -0.887109
vn -0.340311 0.311812 -0.887109
vn -0.370444 0.248464 -0.895007
vn -0.370444 0.248464 -0.895007
vn -0.370444 0.248464 -0.895007
vn -0.370444 0.248464 -0.895007
vn -0.416893 0.211374 -0.884037
vn -0.416893 0.211374 -0.884037
vn -0.416893 0.211374 -0.884037
vn -0.416893 0.211374 -0.884037
vn -0.528366 -0.189452 -0.827610
vn -0.528366 -0.189452 -0.827610
vn -0.528366 -0.189452 -0.827610
vn -0.528366 -0.189452 -0.827610
vn 0.000000 -1.000000 0.000000
vn 0.000000 -1.000000 0.000000
vn 0.000000 -1.000000 0.000000
vn 0.000000 -1.000000 0.000000
vn 0.000000 -1.000000 0.000000
vn 0.000000 -1.000000 0.000000
vn 0.000000 -1.000000 0.000000
vn 0.000000 -1.000000 0.000000
vn 0.000000 -1.000000 -0.000000
vn 0.000000 -1.000000 -0.000000
vn 0.000000 -1.000000 -0.000000
vn 0.000000 -1.000000 -0.000000
vn 0.908127 -0.307238 -0.284448
vn 0.908127 -0.307238 -0.284448
vn 0.908127 -0.307238 -0.284448
vn 0.908127 -0.307238 -0.284448
vn 0.942456 -0.334329 0.000000
vn 0.942456 -0.334329 0.000000
vn 0.942456 -0.334329 0.000000
vn 0.942456 -0.334329 0.000000
vn 0.908127 -0.307238 0.284448
vn 0.908127 -0.307238 0.284448
vn 0.908127 -0.307238 0.284448
vn 0.908127 -0.307238 0.284448
vn 0.913414 0.125108 -0.387327
vn 0.913414 0.125108 -0.387327
vn 0.913414 0.125108 -0.387327
vn 0.913414 0.125108 -0.387327
vn 0.996014 0.089196 0.000000
vn 0.996014 0.089196 0.000000
vn 0.996014 0.089196 0.000000
vn 0.996014 0.089196 0.000000
vn 0.913414 0.125108 0.387327
vn 0.913414 0.125108 0.387327
vn 0.913414 0.125108 0.387327
vn 0.913414 0.125108 0.387327
vn 0.881473 0.204063 -0.425869
vn 0.881472 0.204063 -0.425869
vn 0.881472 0.204063 -0.425869
vn 0.881472 0.204063 -0.425869
vn 0.984322 0.176380 0.000000
vn 0.984322 0.176380 0.000000
vn 0.984322 0.176380 0.000000
vn 0.984322 0.176380 0.000000
vn 0.881472 0.204063 0.425869
vn 0.881472 0.204063 0.425869
vn 0.881472 0.204063 0.425869
vn 0.881472 0.204063 0.425869
vn 0.844028 0.306667 -0.439968
vn 0.844028 0.306667 -0.439968
vn 0.844028 0.306667 -0.439968
vn 0.844028 0.306667 -0.439968
vn 0.957400 0.288766 0.000000
vn 0.957400 0.288766 0.000000
vn 0.957400 0.288766 0.000000
vn 0.957400 0.288766 0.000000
vn 0.844028 0.306667 0.439968
vn 0.844028 0.306667 0.439968
vn 0.844028 0.306667 0.439968
vn 0.844028 0.306667 0.439968
vn -0.908127 -0.307238 -0.284448
vn -0.908127 -0.307238 -0.284448
vn -0.908127 -0.307238 -0.284448
vn -0.908127 -0.307238 -0.284448
vn -0.942456 -0.334329 0.000000
vn -0.942456 -0.334329 0.000000
vn -0.942456 -0.334329 0.000000
vn -0.942456 -0.334329 0.000000
vn -0.908127 -0.307238 0.284448
vn -0.908127 -0.307238 0.284448
vn -0.908127 -0.307238 0.284448
vn -0.908127 -0.307238 0.284448
vn -0.913414 0.125108 -0.387327
vn -0.913414 0.125108 -0.387327
vn -0.913414 0.125108 -0.387327
vn -0.913414 0.125108 -0.387327
vn -0.996014 0.089196 0.000000
vn -0.996014 0.089196 0.000000
vn -0.996014 0.089196 0.000000
vn -0.996014 0.089196 0.000000
vn -0.913414 0.125108 0.387327
vn -0.913414 0.125108 0.387327
vn -0.913414 0.125108 0.387327
vn -0.913414 0.125108 0.387327
vn -0.881472 0.204063 -0.425869
vn -0.881473 0.204063 -0.425869
vn -0.881472 0.204063 -0.425869
vn -0.881473 0.204063 -0.425869
vn -0.984322 0.176380 0.000000
vn -0.984322 0.176380 0.000000
vn -0.984322 0.176380 0.000000
vn -0.984322 0.176380 0.000000
vn -0.881472 0.204063 0.425869
vn -0.881472 0.204063 0.425869
vn -0.881472 0.204063 0.425869
vn -0.881472 0.204063 0.425869
vn -0.844028 0.306667 -0.439968
vn -0.844028 0.306667 -0.439968
vn -0.844028 0.306667 -0.439968
vn -0.844028 0.306667 -0.439968
vn -0.957400 0.288766 0.000000
vn -0.957400 0.288766 0.000000
vn -0.957400 0.288766 0.000000
vn -0.957400 0.288766 0.000000
vn -0.844028 0.306667 0.439968
vn -0.844028 0.306667 0.439968
vn -0.844028 0.306667 0.439968
vn -0.844028 0.306667 0.439968
vn 0.000000 1.000000 0.000000
vn 0.000000 1.000000 0.000000
vn 0.000000 1.000000 0.000000
vn 0.000000 1.000000 0.000000
vn 0.000000 1.000000 0.000000
vn 0.000000 1.000000 0.000000
vn 0.000000 1.000000 0.000000
vn 0.000000 1.000000 0.000000
vn 0.000000 1.000000 0.000000
vn 0.000000 1.000000 0.000000
vn 0.000000 1.000000 0.000000
vn 0.000000 1.000000 0.000000
vn 0.340311 0.311812 -0.887109
vn 0.340311 0.311812 -0.887109
vn 0.340311 0.311812 -0.887109
vn 0.340311 0.311812 -0.887109
vn 0.370444 0.248464 -0.895007
vn 0.370444 0.248464 -0.895007
vn 0.370444 0.248464 -0.895007
vn 0.370444 0.248464 -0.895007
vn 0.416893 0.211374 -0.884037
vn 0.416893 0.211374 -0.884037
vn 0.416893 0.211374 -0.884037
vn 0.416893 0.211374 -0.884037
vn 0.528366 -0.189452 -0.827610
vn 0.528366 -0.189452 -0.827610
vn 0.528366 -0.189452 -0.827610
vn 0.528366 -0.189452 -0.827610
vn 0.000000 -1.000000 0.000000
vn 0.000000 -1.000000 0.000000
vn 0.000000 -1.000000 0.000000
vn 0.000000 -1.000000 0.000000
vn 0.000000 -1.000000 0.000000
vn 0.000000 -1.000000 0.000000
vn 0.000000 -1.000000 0.000000
vn 0.000000 -1.000000 0.000000
vn 0.000000 -1.000000 -0.000001
vn 0.000000 -1.000000 -0.000001
vn 0.000000 -1.000000 -0.000001
vn 0.000000 -1.000000 -0.000001
vn 0.528366 -0.189452 0.827610
vn 0.528366 -0.189452 0.827610
vn 0.528366 -0.189452 0.827610
vn 0.528366 -0.189452 0.827610
vn 0.416893 0.211374 0.884037
vn 0.416893 0.211374 0.884037
vn 0.416893 0.211374 0.884037
vn 0.416893 0.211374 0.884037
vn 0.370444 0.248464 0.895007
vn 0.370444 0.248464 0.895007
vn 0.370444 0.248464 0.895007
vn 0.370444 0.248464 0.895007
vn 0.340311 0.311812 0.887109
vn 0.340311 0.311812 0.887109
vn 0.340311 0.311812 0.887109
vn 0.340311 0.311812 0.887109
vn -0.562739 -0.567663 -0.600902
vn -0.562739 -0.567664 -0.600902
vn -0.562739 -0.567664 -0.600902
vn -0.562739 -0.567664 -0.600902
vn -0.909699 -0.367035 -0.194251
vn -0.909699 -0.367035 -0.194251
vn -0.909699 -0.367035 -0.194251
vn -0.909699 -0.367035 -0.194251
vn -0.947857 -0.318696 0.000000
vn -0.947857 -0.318696 0.000000
vn -0.947857 -0.318696 0.000000
vn -0.947857 -0.318696 0.000000
vn -0.562739 -0.567664 0.600902
vn -0.562739 -0.567663 0.600902
vn -0.562739 -0.567664 0.600902
vn -0.562739 -0.567664 0.600902
vn -0.909699 -0.367035 0.194251
vn -0.909699 -0.367035 0.194251
vn -0.909699 -0.367035 0.194251
vn -0.909699 -0.367035 0.194251
vn 0.562739 -0.567664 -0.600902
vn 0.562739 -0.567663 -0.600902
vn 0.562739 -0.567664 -0.600902
vn 0.562739 -0.567664 -0.600902
vn 0.909699 -0.367035 -0.194251
vn 0.909699 -0.367035 -0.194251
vn 0.909699 -0.367035 -0.194251
vn 0.909699 -0.367035 -0.194251
vn 0.947857 -0.318696 0.000000
vn 0.947857 -0.318696 0.000000
vn 0.947857 -0.318696 0.000000
vn 0.947857 -0.318696 0.000000
vn 0.909699 -0.367035 0.194251
vn 0.909699 -0.367035 0.194251
vn 0.909699 -0.367035 0.194251
vn 0.909699 -0.367035 0.194251
vn 0.562739 -0.567663 0.600902
vn 0.562739 -0.567664 0.600902
vn 0.562739 -0.567664 0.600902
vn 0.562739 -0.567664 0.600902
s off
g pCube1
usemtl initialShadingGroup
f 1/45/1 49/51/2 50/52/3 3/46/4
f 3/85/5 50/86/6 51/87/7 5/88/8
f 5/88/9 51/87/10 52/91/11 7/92/12
f 7/92/13 52/91/14 41/94/15 9/95/16
f 9/61/17 41/62/18 42/63/19 11/64/20
f 11/64/21 42/63/22 43/67/23 13/68/24
f 13/68/25 43/67/26 44/70/27 15/71/28
f 15/97/29 44/98/30 45/99/31 17/100/32
f 17/100/33 45/99/34 46/103/35 19/104/36
f 19/104/37 46/103/38 47/106/39 21/107/40
f 21/34/41 47/41/42 48/42/43 23/31/44
f 53/73/45 54/74/46 55/75/47 56/76/48
f 56/76/49 55/75/50 57/79/51 58/80/52
f 58/80/53 57/79/54 59/82/55 60/83/56
f 26/1/57 24/2/58 22/3/59 29/4/60
f 28/11/61 26/1/62 29/4/63 30/12/64
f 2/18/65 28/11/66 30/12/67 4/19/68
f 29/4/69 22/3/70 20/9/71 31/10/72
f 30/12/73 29/4/74 31/10/75 32/17/76
f 4/19/77 30/12/78 32/17/79 6/24/80
f 31/10/81 20/9/82 18/15/83 33/16/84
f 32/17/85 31/10/86 33/16/87 34/23/88
f 6/24/89 32/17/90 34/23/91 8/29/92
f 33/16/93 18/15/94 16/21/95 14/22/96
f 34/23/97 33/16/98 14/22/99 12/28/100
f 8/29/101 34/23/102 12/28/103 10/30/104
f 23/31/105 25/32/106 35/33/107 21/34/108
f 25/32/109 27/37/110 36/38/111 35/33/112
f 27/37/113 1/45/114 3/46/115 36/38/116
f 21/34/117 35/33/118 37/39/119 19/40/120
f 35/33/121 36/38/122 38/47/123 37/39/124
f 36/38/125 3/46/126 5/53/127 38/47/128
f 19/40/129 37/39/130 39/48/131 17/49/132
f 37/39/133 38/47/134 40/54/135 39/48/136
f 38/47/137 5/53/138 7/58/139 40/54/140
f 17/49/141 39/48/142 13/55/143 15/56/144
f 39/48/145 40/54/146 11/59/147 13/55/148
f 40/54/149 7/58/150 9/60/151 11/59/152
f 41/62/153 10/65/154 12/66/155 42/63/156
f 43/67/157 42/63/158 12/66/159 14/69/160
f 44/70/161 43/67/162 14/69/163 16/72/164
f 45/99/165 44/98/166 16/101/167 18/102/168
f 46/103/169 45/99/170 18/102/171 20/105/172
f 47/106/173 46/103/174 20/105/175 22/108/176
f 48/7/177 47/8/178 22/3/179 24/2/180
f 55/75/181 54/74/182 61/77/183 62/78/184
f 57/79/185 55/75/186 62/78/187 63/81/188
f 59/82/189 57/79/190 63/81/191 64/84/192
f 50/25/193 49/26/194 2/18/195 4/19/196
f 51/87/197 50/86/198 4/89/199 6/90/200
f 52/91/201 51/87/202 6/90/203 8/93/204
f 41/94/205 52/91/206 8/93/207 10/96/208
f 23/31/209 48/42/210 54/43/211 53/35/212
f 25/32/213 23/31/214 53/35/215 56/36/216
f 27/37/217 25/32/218 56/36/219 58/44/220
f 49/51/221 1/45/222 60/50/223 59/57/224
f 1/45/225 27/37/226 58/44/227 60/50/228
f 48/7/229 24/2/230 61/6/231 54/14/232
f 24/2/233 26/1/234 62/5/235 61/6/236
f 26/1/237 28/11/238 63/13/239 62/5/240
f 28/11/241 2/18/242 64/20/243 63/13/244
f 2/18/245 49/26/246 59/27/247 64/20/248
